#define close_width 14
#define close_height 14
static unsigned char close_bits[] = {
   0x20, 0x01, 0x08, 0x04, 0x00, 0x00, 0x12, 0x12, 0x38, 0x07, 0xf1, 0x23,
   0xe0, 0x01, 0xe0, 0x01, 0xf1, 0x23, 0x38, 0x07, 0x12, 0x12, 0x00, 0x00,
   0x08, 0x04, 0x20, 0x01 };
