#define desk_toggled_width 14
#define desk_toggled_height 14
static unsigned char desk_toggled_bits[] = {
   0x20, 0x01, 0x08, 0x04, 0x00, 0x00, 0x02, 0x10, 0x30, 0x03, 0x31, 0x23,
   0x00, 0x00, 0x00, 0x00, 0x31, 0x23, 0x30, 0x03, 0x02, 0x10, 0x00, 0x00,
   0x08, 0x04, 0x20, 0x01 };
