#define desk_width 14
#define desk_height 14
static unsigned char desk_bits[] = {
   0x20, 0x01, 0x08, 0x04, 0x00, 0x00, 0x02, 0x10, 0x00, 0x00, 0x01, 0x20,
   0xc0, 0x00, 0xc0, 0x00, 0x01, 0x20, 0x00, 0x00, 0x02, 0x10, 0x00, 0x00,
   0x08, 0x04, 0x20, 0x01 };
