#define iconify_width 14
#define iconify_height 14
static unsigned char iconify_bits[] = {
   0x20, 0x01, 0x08, 0x04, 0x00, 0x00, 0x02, 0x10, 0x00, 0x00, 0x11, 0x22,
   0x38, 0x07, 0xf0, 0x03, 0xe1, 0x21, 0xc0, 0x00, 0x02, 0x10, 0x00, 0x00,
   0x08, 0x04, 0x20, 0x01 };
