#define max_width 14
#define max_height 14
static unsigned char max_bits[] = {
   0x20, 0x01, 0x08, 0x04, 0x00, 0x00, 0x02, 0x10, 0xc0, 0x00, 0xe1, 0x21,
   0xf0, 0x03, 0x38, 0x07, 0x11, 0x22, 0x00, 0x00, 0x02, 0x10, 0x00, 0x00,
   0x08, 0x04, 0x20, 0x01 };
