#define max_toggled_width 14
#define max_toggled_height 14
static unsigned char max_toggled_bits[] = {
   0x20, 0x01, 0x08, 0x04, 0x00, 0x00, 0xc2, 0x10, 0xe0, 0x01, 0xf1, 0x23,
   0x38, 0x07, 0x38, 0x07, 0xf1, 0x23, 0xe0, 0x01, 0xc2, 0x10, 0x00, 0x00,
   0x08, 0x04, 0x20, 0x01 };
